<?xml version="1.0" encoding="UTF-8" standalone="no"?>
<!DOCTYPE svg PUBLIC "-//W3C//DTD SVG 1.1//EN"
 "http://www.w3.org/Graphics/SVG/1.1/DTD/svg11.dtd">
<!-- Generated by graphviz version 2.43.0 (0)
 -->
<!-- Title: ucdm/config.h Pages: 1 -->
<svg width="308pt" height="192pt"
 viewBox="0.00 0.00 307.50 192.00" xmlns="http://www.w3.org/2000/svg" xmlns:xlink="http://www.w3.org/1999/xlink">
<g id="graph0" class="graph" transform="scale(1 1) rotate(0) translate(4 188)">
<title>ucdm/config.h</title>
<!-- Node1 -->
<g id="Node000001" class="node">
<title>Node1</title>
<g id="a_Node000001"><a xlink:title=" ">
<polygon fill="#999999" stroke="#666666" points="205,-184 120,-184 120,-165 205,-165 205,-184"/>
<text text-anchor="middle" x="162.5" y="-172" font-family="Helvetica,sans-Serif" font-size="10.00">ucdm/config.h</text>
</a>
</g>
</g>
<!-- Node2 -->
<g id="Node000002" class="node">
<title>Node2</title>
<g id="a_Node000002"><a xlink:href="ucdm_8h.html" target="_top" xlink:title="Interface and usage of the Unified Configuration and Data Manager.">
<polygon fill="white" stroke="#666666" points="204,-129 121,-129 121,-110 204,-110 204,-129"/>
<text text-anchor="middle" x="162.5" y="-117" font-family="Helvetica,sans-Serif" font-size="10.00">ucdm/ucdm.h</text>
</a>
</g>
</g>
<!-- Node1&#45;&gt;Node2 -->
<g id="edge1_Node000001_Node000002" class="edge">
<title>Node1&#45;&gt;Node2</title>
<g id="a_edge1_Node000001_Node000002"><a xlink:title=" ">
<path fill="none" stroke="#63b8ff" d="M162.5,-154.66C162.5,-145.93 162.5,-135.99 162.5,-129.09"/>
<polygon fill="#63b8ff" stroke="#63b8ff" points="159,-154.75 162.5,-164.75 166,-154.75 159,-154.75"/>
</a>
</g>
</g>
<!-- Node3 -->
<g id="Node000003" class="node">
<title>Node3</title>
<g id="a_Node000003"><a xlink:href="descriptor_8h.html" target="_top" xlink:title="Descriptor type definitions.">
<polygon fill="white" stroke="#666666" points="134.5,-74 30.5,-74 30.5,-55 134.5,-55 134.5,-74"/>
<text text-anchor="middle" x="82.5" y="-62" font-family="Helvetica,sans-Serif" font-size="10.00">ucdm/descriptor.h</text>
</a>
</g>
</g>
<!-- Node2&#45;&gt;Node3 -->
<g id="edge2_Node000002_Node000003" class="edge">
<title>Node2&#45;&gt;Node3</title>
<g id="a_edge2_Node000002_Node000003"><a xlink:title=" ">
<path fill="none" stroke="#63b8ff" d="M141.25,-104.42C126.74,-94.81 107.96,-82.37 95.59,-74.17"/>
<polygon fill="#63b8ff" stroke="#63b8ff" points="139.38,-107.38 149.65,-109.98 143.24,-101.54 139.38,-107.38"/>
</a>
</g>
</g>
<!-- Node5 -->
<g id="Node000005" class="node">
<title>Node5</title>
<g id="a_Node000005"><a xlink:href="ucdm_8c.html" target="_top" xlink:title="Implementation the Unified Configuration and Data Manager.">
<polygon fill="white" stroke="#666666" points="203.5,-19 121.5,-19 121.5,0 203.5,0 203.5,-19"/>
<text text-anchor="middle" x="162.5" y="-7" font-family="Helvetica,sans-Serif" font-size="10.00">ucdm/ucdm.c</text>
</a>
</g>
</g>
<!-- Node2&#45;&gt;Node5 -->
<g id="edge8_Node000002_Node000005" class="edge">
<title>Node2&#45;&gt;Node5</title>
<g id="a_edge8_Node000002_Node000005"><a xlink:title=" ">
<path fill="none" stroke="#63b8ff" d="M162.5,-99.48C162.5,-75.84 162.5,-36.5 162.5,-19.16"/>
<polygon fill="#63b8ff" stroke="#63b8ff" points="159,-99.66 162.5,-109.66 166,-99.66 159,-99.66"/>
</a>
</g>
</g>
<!-- Node6 -->
<g id="Node000006" class="node">
<title>Node6</title>
<g id="a_Node000006"><a xlink:href="span_8h.html" target="_top" xlink:title="Support for types spanning multiple registers.">
<polygon fill="white" stroke="#666666" points="270,-74 191,-74 191,-55 270,-55 270,-74"/>
<text text-anchor="middle" x="230.5" y="-62" font-family="Helvetica,sans-Serif" font-size="10.00">ucdm/span.h</text>
</a>
</g>
</g>
<!-- Node2&#45;&gt;Node6 -->
<g id="edge5_Node000002_Node000006" class="edge">
<title>Node2&#45;&gt;Node6</title>
<g id="a_edge5_Node000002_Node000006"><a xlink:title=" ">
<path fill="none" stroke="#63b8ff" d="M181.62,-103.6C193.8,-94.11 209.16,-82.13 219.38,-74.17"/>
<polygon fill="#63b8ff" stroke="#63b8ff" points="179.16,-101.08 173.43,-109.98 183.46,-106.6 179.16,-101.08"/>
</a>
</g>
</g>
<!-- Node4 -->
<g id="Node000004" class="node">
<title>Node4</title>
<g id="a_Node000004"><a xlink:href="descriptor_8c.html" target="_top" xlink:title="Descriptor type definitions.">
<polygon fill="white" stroke="#666666" points="103,-19 0,-19 0,0 103,0 103,-19"/>
<text text-anchor="middle" x="51.5" y="-7" font-family="Helvetica,sans-Serif" font-size="10.00">ucdm/descriptor.c</text>
</a>
</g>
</g>
<!-- Node3&#45;&gt;Node4 -->
<g id="edge3_Node000003_Node000004" class="edge">
<title>Node3&#45;&gt;Node4</title>
<g id="a_edge3_Node000003_Node000004"><a xlink:title=" ">
<path fill="none" stroke="#63b8ff" d="M72.32,-46.1C67.03,-37.04 60.78,-26.37 56.52,-19.09"/>
<polygon fill="#63b8ff" stroke="#63b8ff" points="69.31,-47.88 77.38,-54.75 75.35,-44.35 69.31,-47.88"/>
</a>
</g>
</g>
<!-- Node3&#45;&gt;Node5 -->
<g id="edge4_Node000003_Node000005" class="edge">
<title>Node3&#45;&gt;Node5</title>
<g id="a_edge4_Node000003_Node000005"><a xlink:title=" ">
<path fill="none" stroke="#63b8ff" d="M103.75,-49.42C118.26,-39.81 137.04,-27.37 149.41,-19.17"/>
<polygon fill="#63b8ff" stroke="#63b8ff" points="101.76,-46.54 95.35,-54.98 105.62,-52.38 101.76,-46.54"/>
</a>
</g>
</g>
<!-- Node6&#45;&gt;Node5 -->
<g id="edge7_Node000006_Node000005" class="edge">
<title>Node6&#45;&gt;Node5</title>
<g id="a_edge7_Node000006_Node000005"><a xlink:title=" ">
<path fill="none" stroke="#63b8ff" d="M211.38,-48.6C199.2,-39.11 183.84,-27.13 173.62,-19.17"/>
<polygon fill="#63b8ff" stroke="#63b8ff" points="209.54,-51.6 219.57,-54.98 213.84,-46.08 209.54,-51.6"/>
</a>
</g>
</g>
<!-- Node7 -->
<g id="Node000007" class="node">
<title>Node7</title>
<g id="a_Node000007"><a xlink:href="span_8c.html" target="_top" xlink:title="Support for types spanning multiple registers.">
<polygon fill="white" stroke="#666666" points="299.5,-19 221.5,-19 221.5,0 299.5,0 299.5,-19"/>
<text text-anchor="middle" x="260.5" y="-7" font-family="Helvetica,sans-Serif" font-size="10.00">ucdm/span.c</text>
</a>
</g>
</g>
<!-- Node6&#45;&gt;Node7 -->
<g id="edge6_Node000006_Node000007" class="edge">
<title>Node6&#45;&gt;Node7</title>
<g id="a_edge6_Node000006_Node000007"><a xlink:title=" ">
<path fill="none" stroke="#63b8ff" d="M240.51,-45.82C245.6,-36.82 251.56,-26.29 255.64,-19.09"/>
<polygon fill="#63b8ff" stroke="#63b8ff" points="237.33,-44.32 235.45,-54.75 243.43,-47.77 237.33,-44.32"/>
</a>
</g>
</g>
</g>
</svg>
