<?xml version="1.0" encoding="UTF-8" standalone="no"?>
<!DOCTYPE svg PUBLIC "-//W3C//DTD SVG 1.1//EN"
 "http://www.w3.org/Graphics/SVG/1.1/DTD/svg11.dtd">
<!-- Generated by graphviz version 2.43.0 (0)
 -->
<!-- Title: ucdm/descriptor.h Pages: 1 -->
<svg width="212pt" height="84pt"
 viewBox="0.00 0.00 211.50 84.00" xmlns="http://www.w3.org/2000/svg" xmlns:xlink="http://www.w3.org/1999/xlink">
<g id="graph0" class="graph" transform="scale(1 1) rotate(0) translate(4 80)">
<title>ucdm/descriptor.h</title>
<!-- Node1 -->
<g id="node1" class="node">
<title>Node1</title>
<g id="a_node1"><a xlink:title="Descriptor type definitions.">
<polygon fill="#bfbfbf" stroke="black" points="54.5,-56.5 54.5,-75.5 158.5,-75.5 158.5,-56.5 54.5,-56.5"/>
<text text-anchor="middle" x="106.5" y="-63.5" font-family="Helvetica,sans-Serif" font-size="10.00">ucdm/descriptor.h</text>
</a>
</g>
</g>
<!-- Node2 -->
<g id="node2" class="node">
<title>Node2</title>
<g id="a_node2"><a xlink:href="descriptor_8c.html" target="_top" xlink:title="Descriptor type definitions.">
<polygon fill="none" stroke="black" points="0,-0.5 0,-19.5 103,-19.5 103,-0.5 0,-0.5"/>
<text text-anchor="middle" x="51.5" y="-7.5" font-family="Helvetica,sans-Serif" font-size="10.00">ucdm/descriptor.c</text>
</a>
</g>
</g>
<!-- Node1&#45;&gt;Node2 -->
<g id="edge1" class="edge">
<title>Node1&#45;&gt;Node2</title>
<path fill="none" stroke="midnightblue" d="M90.21,-49C80.46,-39.43 68.45,-27.64 60.41,-19.75"/>
<polygon fill="midnightblue" stroke="midnightblue" points="87.83,-51.57 97.42,-56.08 92.73,-46.58 87.83,-51.57"/>
</g>
<!-- Node3 -->
<g id="node3" class="node">
<title>Node3</title>
<g id="a_node3"><a xlink:href="ucdm_8c.html" target="_top" xlink:title="Implementation the Unified Configuration and Data Manager.">
<polygon fill="none" stroke="black" points="121.5,-0.5 121.5,-19.5 203.5,-19.5 203.5,-0.5 121.5,-0.5"/>
<text text-anchor="middle" x="162.5" y="-7.5" font-family="Helvetica,sans-Serif" font-size="10.00">ucdm/ucdm.c</text>
</a>
</g>
</g>
<!-- Node1&#45;&gt;Node3 -->
<g id="edge2" class="edge">
<title>Node1&#45;&gt;Node3</title>
<path fill="none" stroke="midnightblue" d="M122.83,-49.25C132.76,-39.67 145.09,-27.79 153.34,-19.83"/>
<polygon fill="midnightblue" stroke="midnightblue" points="120.27,-46.86 115.5,-56.32 125.13,-51.9 120.27,-46.86"/>
</g>
</g>
</svg>
