<?xml version="1.0" encoding="UTF-8" standalone="no"?>
<!DOCTYPE svg PUBLIC "-//W3C//DTD SVG 1.1//EN"
 "http://www.w3.org/Graphics/SVG/1.1/DTD/svg11.dtd">
<!-- Generated by graphviz version 2.43.0 (0)
 -->
<!-- Title: ucdm/descriptor.c Pages: 1 -->
<svg width="306pt" height="196pt"
 viewBox="0.00 0.00 306.00 196.00" xmlns="http://www.w3.org/2000/svg" xmlns:xlink="http://www.w3.org/1999/xlink">
<g id="graph0" class="graph" transform="scale(1 1) rotate(0) translate(4 192)">
<title>ucdm/descriptor.c</title>
<!-- Node1 -->
<g id="node1" class="node">
<title>Node1</title>
<g id="a_node1"><a xlink:title="Descriptor type definitions.">
<polygon fill="#bfbfbf" stroke="black" points="51,-168.5 51,-187.5 154,-187.5 154,-168.5 51,-168.5"/>
<text text-anchor="middle" x="102.5" y="-175.5" font-family="Helvetica,sans-Serif" font-size="10.00">ucdm/descriptor.c</text>
</a>
</g>
</g>
<!-- Node2 -->
<g id="node2" class="node">
<title>Node2</title>
<g id="a_node2"><a xlink:title=" ">
<polygon fill="none" stroke="#bfbfbf" points="0,-112.5 0,-131.5 53,-131.5 53,-112.5 0,-112.5"/>
<text text-anchor="middle" x="26.5" y="-119.5" font-family="Helvetica,sans-Serif" font-size="10.00">string.h</text>
</a>
</g>
</g>
<!-- Node1&#45;&gt;Node2 -->
<g id="edge1" class="edge">
<title>Node1&#45;&gt;Node2</title>
<path fill="none" stroke="midnightblue" d="M90.29,-168.32C78.72,-160.11 61.12,-147.6 47.34,-137.81"/>
<polygon fill="midnightblue" stroke="midnightblue" points="49.11,-134.77 38.93,-131.83 45.06,-140.48 49.11,-134.77"/>
</g>
<!-- Node3 -->
<g id="node3" class="node">
<title>Node3</title>
<g id="a_node3"><a xlink:title=" ">
<polygon fill="none" stroke="#bfbfbf" points="71,-112.5 71,-131.5 134,-131.5 134,-112.5 71,-112.5"/>
<text text-anchor="middle" x="102.5" y="-119.5" font-family="Helvetica,sans-Serif" font-size="10.00">ds/sllist.h</text>
</a>
</g>
</g>
<!-- Node1&#45;&gt;Node3 -->
<g id="edge2" class="edge">
<title>Node1&#45;&gt;Node3</title>
<path fill="none" stroke="midnightblue" d="M102.5,-168.08C102.5,-161.01 102.5,-150.86 102.5,-141.99"/>
<polygon fill="midnightblue" stroke="midnightblue" points="106,-141.75 102.5,-131.75 99,-141.75 106,-141.75"/>
</g>
<!-- Node4 -->
<g id="node4" class="node">
<title>Node4</title>
<g id="a_node4"><a xlink:href="descriptor_8h.html" target="_top" xlink:title="Descriptor type definitions.">
<polygon fill="none" stroke="black" points="152.5,-112.5 152.5,-131.5 226.5,-131.5 226.5,-112.5 152.5,-112.5"/>
<text text-anchor="middle" x="189.5" y="-119.5" font-family="Helvetica,sans-Serif" font-size="10.00">descriptor.h</text>
</a>
</g>
</g>
<!-- Node1&#45;&gt;Node4 -->
<g id="edge3" class="edge">
<title>Node1&#45;&gt;Node4</title>
<path fill="none" stroke="midnightblue" d="M116.48,-168.32C130.05,-159.9 150.88,-146.97 166.82,-137.07"/>
<polygon fill="midnightblue" stroke="midnightblue" points="168.91,-139.9 175.56,-131.65 165.21,-133.95 168.91,-139.9"/>
</g>
<!-- Node5 -->
<g id="node5" class="node">
<title>Node5</title>
<g id="a_node5"><a xlink:href="ucdm_8h.html" target="_top" xlink:title="Interface and usage of the Unified Configuration and Data Manager.">
<polygon fill="none" stroke="black" points="163,-56.5 163,-75.5 216,-75.5 216,-56.5 163,-56.5"/>
<text text-anchor="middle" x="189.5" y="-63.5" font-family="Helvetica,sans-Serif" font-size="10.00">ucdm.h</text>
</a>
</g>
</g>
<!-- Node4&#45;&gt;Node5 -->
<g id="edge4" class="edge">
<title>Node4&#45;&gt;Node5</title>
<path fill="none" stroke="midnightblue" d="M189.5,-112.08C189.5,-105.01 189.5,-94.86 189.5,-85.99"/>
<polygon fill="midnightblue" stroke="midnightblue" points="193,-85.75 189.5,-75.75 186,-85.75 193,-85.75"/>
</g>
<!-- Node6 -->
<g id="node6" class="node">
<title>Node6</title>
<g id="a_node6"><a xlink:title=" ">
<polygon fill="none" stroke="#bfbfbf" points="36.5,-0.5 36.5,-19.5 134.5,-19.5 134.5,-0.5 36.5,-0.5"/>
<text text-anchor="middle" x="85.5" y="-7.5" font-family="Helvetica,sans-Serif" font-size="10.00">platform/types.h</text>
</a>
</g>
</g>
<!-- Node5&#45;&gt;Node6 -->
<g id="edge5" class="edge">
<title>Node5&#45;&gt;Node6</title>
<path fill="none" stroke="midnightblue" d="M172.79,-56.32C156.19,-47.7 130.5,-34.36 111.28,-24.39"/>
<polygon fill="midnightblue" stroke="midnightblue" points="112.66,-21.16 102.17,-19.65 109.43,-27.37 112.66,-21.16"/>
</g>
<!-- Node7 -->
<g id="node7" class="node">
<title>Node7</title>
<g id="a_node7"><a xlink:title=" ">
<polygon fill="none" stroke="#bfbfbf" points="152.5,-0.5 152.5,-19.5 226.5,-19.5 226.5,-0.5 152.5,-0.5"/>
<text text-anchor="middle" x="189.5" y="-7.5" font-family="Helvetica,sans-Serif" font-size="10.00">ds/avltree.h</text>
</a>
</g>
</g>
<!-- Node5&#45;&gt;Node7 -->
<g id="edge6" class="edge">
<title>Node5&#45;&gt;Node7</title>
<path fill="none" stroke="midnightblue" d="M189.5,-56.08C189.5,-49.01 189.5,-38.86 189.5,-29.99"/>
<polygon fill="midnightblue" stroke="midnightblue" points="193,-29.75 189.5,-19.75 186,-29.75 193,-29.75"/>
</g>
<!-- Node8 -->
<g id="node8" class="node">
<title>Node8</title>
<g id="a_node8"><a xlink:title=" ">
<polygon fill="none" stroke="#bfbfbf" points="245,-0.5 245,-19.5 298,-19.5 298,-0.5 245,-0.5"/>
<text text-anchor="middle" x="271.5" y="-7.5" font-family="Helvetica,sans-Serif" font-size="10.00">stdint.h</text>
</a>
</g>
</g>
<!-- Node5&#45;&gt;Node8 -->
<g id="edge7" class="edge">
<title>Node5&#45;&gt;Node8</title>
<path fill="none" stroke="midnightblue" d="M202.67,-56.32C215.35,-47.98 234.73,-35.21 249.71,-25.35"/>
<polygon fill="midnightblue" stroke="midnightblue" points="251.93,-28.08 258.36,-19.65 248.08,-22.23 251.93,-28.08"/>
</g>
</g>
</svg>
