<?xml version="1.0" encoding="UTF-8" standalone="no"?>
<!DOCTYPE svg PUBLIC "-//W3C//DTD SVG 1.1//EN"
 "http://www.w3.org/Graphics/SVG/1.1/DTD/svg11.dtd">
<!-- Generated by graphviz version 2.43.0 (0)
 -->
<!-- Title: ucdm/descriptor.c Pages: 1 -->
<svg width="355pt" height="252pt"
 viewBox="0.00 0.00 355.00 252.00" xmlns="http://www.w3.org/2000/svg" xmlns:xlink="http://www.w3.org/1999/xlink">
<g id="graph0" class="graph" transform="scale(1 1) rotate(0) translate(4 248)">
<title>ucdm/descriptor.c</title>
<!-- Node1 -->
<g id="node1" class="node">
<title>Node1</title>
<g id="a_node1"><a xlink:title="Descriptor type definitions.">
<polygon fill="#bfbfbf" stroke="black" points="55.5,-224.5 55.5,-243.5 158.5,-243.5 158.5,-224.5 55.5,-224.5"/>
<text text-anchor="middle" x="107" y="-231.5" font-family="Helvetica,sans-Serif" font-size="10.00">ucdm/descriptor.c</text>
</a>
</g>
</g>
<!-- Node2 -->
<g id="node2" class="node">
<title>Node2</title>
<g id="a_node2"><a xlink:title=" ">
<polygon fill="none" stroke="#bfbfbf" points="4.5,-168.5 4.5,-187.5 57.5,-187.5 57.5,-168.5 4.5,-168.5"/>
<text text-anchor="middle" x="31" y="-175.5" font-family="Helvetica,sans-Serif" font-size="10.00">string.h</text>
</a>
</g>
</g>
<!-- Node1&#45;&gt;Node2 -->
<g id="edge1" class="edge">
<title>Node1&#45;&gt;Node2</title>
<path fill="none" stroke="midnightblue" d="M94.79,-224.32C83.22,-216.11 65.62,-203.6 51.84,-193.81"/>
<polygon fill="midnightblue" stroke="midnightblue" points="53.61,-190.77 43.43,-187.83 49.56,-196.48 53.61,-190.77"/>
</g>
<!-- Node3 -->
<g id="node3" class="node">
<title>Node3</title>
<g id="a_node3"><a xlink:title=" ">
<polygon fill="none" stroke="#bfbfbf" points="75.5,-168.5 75.5,-187.5 138.5,-187.5 138.5,-168.5 75.5,-168.5"/>
<text text-anchor="middle" x="107" y="-175.5" font-family="Helvetica,sans-Serif" font-size="10.00">ds/sllist.h</text>
</a>
</g>
</g>
<!-- Node1&#45;&gt;Node3 -->
<g id="edge2" class="edge">
<title>Node1&#45;&gt;Node3</title>
<path fill="none" stroke="midnightblue" d="M107,-224.08C107,-217.01 107,-206.86 107,-197.99"/>
<polygon fill="midnightblue" stroke="midnightblue" points="110.5,-197.75 107,-187.75 103.5,-197.75 110.5,-197.75"/>
</g>
<!-- Node4 -->
<g id="node4" class="node">
<title>Node4</title>
<g id="a_node4"><a xlink:href="descriptor_8h.html" target="_top" xlink:title="Descriptor type definitions.">
<polygon fill="none" stroke="black" points="157,-168.5 157,-187.5 231,-187.5 231,-168.5 157,-168.5"/>
<text text-anchor="middle" x="194" y="-175.5" font-family="Helvetica,sans-Serif" font-size="10.00">descriptor.h</text>
</a>
</g>
</g>
<!-- Node1&#45;&gt;Node4 -->
<g id="edge3" class="edge">
<title>Node1&#45;&gt;Node4</title>
<path fill="none" stroke="midnightblue" d="M120.98,-224.32C134.55,-215.9 155.38,-202.97 171.32,-193.07"/>
<polygon fill="midnightblue" stroke="midnightblue" points="173.41,-195.9 180.06,-187.65 169.71,-189.95 173.41,-195.9"/>
</g>
<!-- Node5 -->
<g id="node5" class="node">
<title>Node5</title>
<g id="a_node5"><a xlink:href="ucdm_8h.html" target="_top" xlink:title="Interface and usage of the Unified Configuration and Data Manager.">
<polygon fill="none" stroke="black" points="167.5,-112.5 167.5,-131.5 220.5,-131.5 220.5,-112.5 167.5,-112.5"/>
<text text-anchor="middle" x="194" y="-119.5" font-family="Helvetica,sans-Serif" font-size="10.00">ucdm.h</text>
</a>
</g>
</g>
<!-- Node4&#45;&gt;Node5 -->
<g id="edge4" class="edge">
<title>Node4&#45;&gt;Node5</title>
<path fill="none" stroke="midnightblue" d="M194,-168.08C194,-161.01 194,-150.86 194,-141.99"/>
<polygon fill="midnightblue" stroke="midnightblue" points="197.5,-141.75 194,-131.75 190.5,-141.75 197.5,-141.75"/>
</g>
<!-- Node6 -->
<g id="node6" class="node">
<title>Node6</title>
<g id="a_node6"><a xlink:title=" ">
<polygon fill="none" stroke="#bfbfbf" points="0,-56.5 0,-75.5 98,-75.5 98,-56.5 0,-56.5"/>
<text text-anchor="middle" x="49" y="-63.5" font-family="Helvetica,sans-Serif" font-size="10.00">platform/types.h</text>
</a>
</g>
</g>
<!-- Node5&#45;&gt;Node6 -->
<g id="edge5" class="edge">
<title>Node5&#45;&gt;Node6</title>
<path fill="none" stroke="midnightblue" d="M171.02,-112.44C146.84,-103.44 108.58,-89.19 81.35,-79.05"/>
<polygon fill="midnightblue" stroke="midnightblue" points="82.46,-75.73 71.87,-75.52 80.02,-82.29 82.46,-75.73"/>
</g>
<!-- Node7 -->
<g id="node7" class="node">
<title>Node7</title>
<g id="a_node7"><a xlink:title=" ">
<polygon fill="none" stroke="#bfbfbf" points="116,-56.5 116,-75.5 190,-75.5 190,-56.5 116,-56.5"/>
<text text-anchor="middle" x="153" y="-63.5" font-family="Helvetica,sans-Serif" font-size="10.00">ds/avltree.h</text>
</a>
</g>
</g>
<!-- Node5&#45;&gt;Node7 -->
<g id="edge6" class="edge">
<title>Node5&#45;&gt;Node7</title>
<path fill="none" stroke="midnightblue" d="M187.23,-112.08C181.44,-104.46 172.94,-93.26 165.86,-83.94"/>
<polygon fill="midnightblue" stroke="midnightblue" points="168.48,-81.6 159.64,-75.75 162.9,-85.83 168.48,-81.6"/>
</g>
<!-- Node8 -->
<g id="node8" class="node">
<title>Node8</title>
<g id="a_node8"><a xlink:title=" ">
<polygon fill="none" stroke="#bfbfbf" points="208.5,-56.5 208.5,-75.5 261.5,-75.5 261.5,-56.5 208.5,-56.5"/>
<text text-anchor="middle" x="235" y="-63.5" font-family="Helvetica,sans-Serif" font-size="10.00">stdint.h</text>
</a>
</g>
</g>
<!-- Node5&#45;&gt;Node8 -->
<g id="edge7" class="edge">
<title>Node5&#45;&gt;Node8</title>
<path fill="none" stroke="midnightblue" d="M200.77,-112.08C206.56,-104.46 215.06,-93.26 222.14,-83.94"/>
<polygon fill="midnightblue" stroke="midnightblue" points="225.1,-85.83 228.36,-75.75 219.52,-81.6 225.1,-85.83"/>
</g>
<!-- Node9 -->
<g id="node9" class="node">
<title>Node9</title>
<g id="a_node9"><a xlink:href="config_8h_source.html" target="_top" xlink:title=" ">
<polygon fill="none" stroke="black" points="279.5,-56.5 279.5,-75.5 334.5,-75.5 334.5,-56.5 279.5,-56.5"/>
<text text-anchor="middle" x="307" y="-63.5" font-family="Helvetica,sans-Serif" font-size="10.00">config.h</text>
</a>
</g>
</g>
<!-- Node5&#45;&gt;Node9 -->
<g id="edge8" class="edge">
<title>Node5&#45;&gt;Node9</title>
<path fill="none" stroke="midnightblue" d="M211.91,-112.44C230.25,-103.68 259.01,-89.94 280.09,-79.86"/>
<polygon fill="midnightblue" stroke="midnightblue" points="281.67,-82.99 289.18,-75.52 278.65,-76.67 281.67,-82.99"/>
</g>
<!-- Node10 -->
<g id="node10" class="node">
<title>Node10</title>
<g id="a_node10"><a xlink:title=" ">
<polygon fill="none" stroke="#bfbfbf" points="267,-0.5 267,-19.5 347,-19.5 347,-0.5 267,-0.5"/>
<text text-anchor="middle" x="307" y="-7.5" font-family="Helvetica,sans-Serif" font-size="10.00">application.h</text>
</a>
</g>
</g>
<!-- Node9&#45;&gt;Node10 -->
<g id="edge9" class="edge">
<title>Node9&#45;&gt;Node10</title>
<path fill="none" stroke="midnightblue" d="M307,-56.08C307,-49.01 307,-38.86 307,-29.99"/>
<polygon fill="midnightblue" stroke="midnightblue" points="310.5,-29.75 307,-19.75 303.5,-29.75 310.5,-29.75"/>
</g>
</g>
</svg>
