<?xml version="1.0" encoding="UTF-8" standalone="no"?>
<!DOCTYPE svg PUBLIC "-//W3C//DTD SVG 1.1//EN"
 "http://www.w3.org/Graphics/SVG/1.1/DTD/svg11.dtd">
<!-- Generated by graphviz version 2.43.0 (0)
 -->
<!-- Title: DESCRIPTOR_CUSTOM_t Pages: 1 -->
<svg width="187pt" height="93pt"
 viewBox="0.00 0.00 187.00 93.00" xmlns="http://www.w3.org/2000/svg" xmlns:xlink="http://www.w3.org/1999/xlink">
<g id="graph0" class="graph" transform="scale(1 1) rotate(0) translate(4 89)">
<title>DESCRIPTOR_CUSTOM_t</title>
<!-- Node1 -->
<g id="Node000001" class="node">
<title>Node1</title>
<g id="a_Node000001"><a xlink:title=" ">
<polygon fill="#999999" stroke="#666666" points="136,-19 0,-19 0,0 136,0 136,-19"/>
<text text-anchor="middle" x="68" y="-7" font-family="Helvetica,sans-Serif" font-size="10.00">DESCRIPTOR_CUSTOM_t</text>
</a>
</g>
</g>
<!-- Node1&#45;&gt;Node1 -->
<g id="edge1_Node000001_Node000001" class="edge">
<title>Node1&#45;&gt;Node1</title>
<g id="a_edge1_Node000001_Node000001"><a xlink:title=" ">
<path fill="none" stroke="#9a32cd" stroke-dasharray="5,2" d="M146.1,-13.72C151.03,-12.73 154,-11.32 154,-9.5 154,-6.66 146.76,-4.82 136.13,-4"/>
<polygon fill="#9a32cd" stroke="#9a32cd" points="145.6,-10.26 136.13,-15 146.49,-17.2 145.6,-10.26"/>
</a>
</g>
<text text-anchor="middle" x="166.5" y="-7" font-family="Helvetica,sans-Serif" font-size="10.00" fill="grey"> next</text>
</g>
<!-- Node2 -->
<g id="Node000002" class="node">
<title>Node2</title>
<g id="a_Node000002"><a xlink:href="union_d_e_s_c_r_i_p_t_o_r___p_t_r__t.html" target="_top" xlink:title=" ">
<polygon fill="white" stroke="#666666" points="124,-85 12,-85 12,-66 124,-66 124,-85"/>
<text text-anchor="middle" x="68" y="-73" font-family="Helvetica,sans-Serif" font-size="10.00">DESCRIPTOR_PTR_t</text>
</a>
</g>
</g>
<!-- Node2&#45;&gt;Node1 -->
<g id="edge2_Node000001_Node000002" class="edge">
<title>Node2&#45;&gt;Node1</title>
<g id="a_edge2_Node000001_Node000002"><a xlink:title=" ">
<path fill="none" stroke="#9a32cd" stroke-dasharray="5,2" d="M68,-55.58C68,-43.63 68,-28.72 68,-19.41"/>
<polygon fill="#9a32cd" stroke="#9a32cd" points="64.5,-55.87 68,-65.87 71.5,-55.87 64.5,-55.87"/>
</a>
</g>
<text text-anchor="middle" x="83.5" y="-40" font-family="Helvetica,sans-Serif" font-size="10.00" fill="grey"> value</text>
</g>
</g>
</svg>
