<?xml version="1.0" encoding="UTF-8" standalone="no"?>
<!DOCTYPE svg PUBLIC "-//W3C//DTD SVG 1.1//EN"
 "http://www.w3.org/Graphics/SVG/1.1/DTD/svg11.dtd">
<!-- Generated by graphviz version 2.43.0 (0)
 -->
<!-- Title: DESCRIPTOR_CUSTOM_t Pages: 1 -->
<svg width="187pt" height="95pt"
 viewBox="0.00 0.00 187.00 95.00" xmlns="http://www.w3.org/2000/svg" xmlns:xlink="http://www.w3.org/1999/xlink">
<g id="graph0" class="graph" transform="scale(1 1) rotate(0) translate(4 91)">
<title>DESCRIPTOR_CUSTOM_t</title>
<!-- Node1 -->
<g id="node1" class="node">
<title>Node1</title>
<g id="a_node1"><a xlink:title=" ">
<polygon fill="#bfbfbf" stroke="black" points="0,-0.5 0,-19.5 136,-19.5 136,-0.5 0,-0.5"/>
<text text-anchor="middle" x="68" y="-7.5" font-family="Helvetica,sans-Serif" font-size="10.00">DESCRIPTOR_CUSTOM_t</text>
</a>
</g>
</g>
<!-- Node1&#45;&gt;Node1 -->
<g id="edge1" class="edge">
<title>Node1&#45;&gt;Node1</title>
<path fill="none" stroke="#9a32cd" stroke-dasharray="5,2" d="M146.1,-14.22C151.03,-13.23 154,-11.82 154,-10 154,-7.16 146.76,-5.32 136.13,-4.5"/>
<polygon fill="#9a32cd" stroke="#9a32cd" points="145.6,-10.76 136.13,-15.5 146.49,-17.7 145.6,-10.76"/>
<text text-anchor="middle" x="166.5" y="-7.5" font-family="Helvetica,sans-Serif" font-size="10.00"> next</text>
</g>
<!-- Node2 -->
<g id="node2" class="node">
<title>Node2</title>
<g id="a_node2"><a xlink:href="union_d_e_s_c_r_i_p_t_o_r___p_t_r__t.html" target="_top" xlink:title=" ">
<polygon fill="none" stroke="black" points="12,-67.5 12,-86.5 124,-86.5 124,-67.5 12,-67.5"/>
<text text-anchor="middle" x="68" y="-74.5" font-family="Helvetica,sans-Serif" font-size="10.00">DESCRIPTOR_PTR_t</text>
</a>
</g>
</g>
<!-- Node2&#45;&gt;Node1 -->
<g id="edge2" class="edge">
<title>Node2&#45;&gt;Node1</title>
<path fill="none" stroke="#9a32cd" stroke-dasharray="5,2" d="M68,-57.04C68,-44.67 68,-29.12 68,-19.63"/>
<polygon fill="#9a32cd" stroke="#9a32cd" points="64.5,-57.23 68,-67.23 71.5,-57.23 64.5,-57.23"/>
<text text-anchor="middle" x="83.5" y="-41" font-family="Helvetica,sans-Serif" font-size="10.00"> value</text>
</g>
</g>
</svg>
