<?xml version="1.0" encoding="UTF-8" standalone="no"?>
<!DOCTYPE svg PUBLIC "-//W3C//DTD SVG 1.1//EN"
 "http://www.w3.org/Graphics/SVG/1.1/DTD/svg11.dtd">
<!-- Generated by graphviz version 2.43.0 (0)
 -->
<!-- Title: ucdm/ucdm.c Pages: 1 -->
<svg width="355pt" height="247pt"
 viewBox="0.00 0.00 355.00 247.00" xmlns="http://www.w3.org/2000/svg" xmlns:xlink="http://www.w3.org/1999/xlink">
<g id="graph0" class="graph" transform="scale(1 1) rotate(0) translate(4 243)">
<title>ucdm/ucdm.c</title>
<!-- Node1 -->
<g id="Node000001" class="node">
<title>Node1</title>
<g id="a_Node000001"><a xlink:title="Implementation the Unified Configuration and Data Manager.">
<polygon fill="#999999" stroke="#666666" points="208,-239 126,-239 126,-220 208,-220 208,-239"/>
<text text-anchor="middle" x="167" y="-227" font-family="Helvetica,sans-Serif" font-size="10.00">ucdm/ucdm.c</text>
</a>
</g>
</g>
<!-- Node2 -->
<g id="Node000002" class="node">
<title>Node2</title>
<g id="a_Node000002"><a xlink:title=" ">
<polygon fill="#e0e0e0" stroke="#999999" points="112.5,-184 59.5,-184 59.5,-165 112.5,-165 112.5,-184"/>
<text text-anchor="middle" x="86" y="-172" font-family="Helvetica,sans-Serif" font-size="10.00">string.h</text>
</a>
</g>
</g>
<!-- Node1&#45;&gt;Node2 -->
<g id="edge1_Node000001_Node000002" class="edge">
<title>Node1&#45;&gt;Node2</title>
<g id="a_edge1_Node000001_Node000002"><a xlink:title=" ">
<path fill="none" stroke="#63b8ff" d="M153.99,-219.98C141.54,-211.84 122.54,-199.41 107.79,-189.76"/>
<polygon fill="#63b8ff" stroke="#63b8ff" points="109.54,-186.72 99.25,-184.17 105.7,-192.57 109.54,-186.72"/>
</a>
</g>
</g>
<!-- Node3 -->
<g id="Node000003" class="node">
<title>Node3</title>
<g id="a_Node000003"><a xlink:href="ucdm_8h.html" target="_top" xlink:title="Interface and usage of the Unified Configuration and Data Manager.">
<polygon fill="white" stroke="#666666" points="220.5,-129 167.5,-129 167.5,-110 220.5,-110 220.5,-129"/>
<text text-anchor="middle" x="194" y="-117" font-family="Helvetica,sans-Serif" font-size="10.00">ucdm.h</text>
</a>
</g>
</g>
<!-- Node1&#45;&gt;Node3 -->
<g id="edge2_Node000001_Node000003" class="edge">
<title>Node1&#45;&gt;Node3</title>
<g id="a_edge2_Node000001_Node000003"><a xlink:title=" ">
<path fill="none" stroke="#63b8ff" d="M163.68,-219.62C159.53,-207.1 153.67,-183.7 160,-165 163.56,-154.47 170.72,-144.48 177.55,-136.63"/>
<polygon fill="#63b8ff" stroke="#63b8ff" points="180.13,-139.01 184.39,-129.31 175.01,-134.23 180.13,-139.01"/>
</a>
</g>
</g>
<!-- Node9 -->
<g id="Node000009" class="node">
<title>Node9</title>
<g id="a_Node000009"><a xlink:href="span_8h.html" target="_top" xlink:title="Support for types spanning multiple registers.">
<polygon fill="white" stroke="#666666" points="218.5,-184 169.5,-184 169.5,-165 218.5,-165 218.5,-184"/>
<text text-anchor="middle" x="194" y="-172" font-family="Helvetica,sans-Serif" font-size="10.00">span.h</text>
</a>
</g>
</g>
<!-- Node1&#45;&gt;Node9 -->
<g id="edge8_Node000001_Node000009" class="edge">
<title>Node1&#45;&gt;Node9</title>
<g id="a_edge8_Node000001_Node000009"><a xlink:title=" ">
<path fill="none" stroke="#63b8ff" d="M171.46,-219.75C175.12,-212.57 180.41,-202.18 184.95,-193.27"/>
<polygon fill="#63b8ff" stroke="#63b8ff" points="188.2,-194.59 189.62,-184.09 181.97,-191.41 188.2,-194.59"/>
</a>
</g>
</g>
<!-- Node10 -->
<g id="Node000010" class="node">
<title>Node10</title>
<g id="a_Node000010"><a xlink:href="descriptor_8h.html" target="_top" xlink:title="Descriptor type definitions.">
<polygon fill="white" stroke="#666666" points="311,-184 237,-184 237,-165 311,-165 311,-184"/>
<text text-anchor="middle" x="274" y="-172" font-family="Helvetica,sans-Serif" font-size="10.00">descriptor.h</text>
</a>
</g>
</g>
<!-- Node1&#45;&gt;Node10 -->
<g id="edge10_Node000001_Node000010" class="edge">
<title>Node1&#45;&gt;Node10</title>
<g id="a_edge10_Node000001_Node000010"><a xlink:title=" ">
<path fill="none" stroke="#63b8ff" d="M184.19,-219.98C201.25,-211.54 227.63,-198.47 247.4,-188.68"/>
<polygon fill="#63b8ff" stroke="#63b8ff" points="249.09,-191.75 256.5,-184.17 245.98,-185.47 249.09,-191.75"/>
</a>
</g>
</g>
<!-- Node4 -->
<g id="Node000004" class="node">
<title>Node4</title>
<g id="a_Node000004"><a xlink:title=" ">
<polygon fill="#e0e0e0" stroke="#999999" points="98,-74 0,-74 0,-55 98,-55 98,-74"/>
<text text-anchor="middle" x="49" y="-62" font-family="Helvetica,sans-Serif" font-size="10.00">platform/types.h</text>
</a>
</g>
</g>
<!-- Node3&#45;&gt;Node4 -->
<g id="edge3_Node000003_Node000004" class="edge">
<title>Node3&#45;&gt;Node4</title>
<g id="a_edge3_Node000003_Node000004"><a xlink:title=" ">
<path fill="none" stroke="#63b8ff" d="M170.7,-109.98C146.75,-101.23 109.22,-87.51 82.17,-77.62"/>
<polygon fill="#63b8ff" stroke="#63b8ff" points="83.31,-74.32 72.72,-74.17 80.91,-80.89 83.31,-74.32"/>
</a>
</g>
</g>
<!-- Node5 -->
<g id="Node000005" class="node">
<title>Node5</title>
<g id="a_Node000005"><a xlink:title=" ">
<polygon fill="#e0e0e0" stroke="#999999" points="190,-74 116,-74 116,-55 190,-55 190,-74"/>
<text text-anchor="middle" x="153" y="-62" font-family="Helvetica,sans-Serif" font-size="10.00">ds/avltree.h</text>
</a>
</g>
</g>
<!-- Node3&#45;&gt;Node5 -->
<g id="edge4_Node000003_Node000005" class="edge">
<title>Node3&#45;&gt;Node5</title>
<g id="a_edge4_Node000003_Node000005"><a xlink:title=" ">
<path fill="none" stroke="#63b8ff" d="M187.23,-109.75C181.44,-102.26 172.94,-91.28 165.86,-82.13"/>
<polygon fill="#63b8ff" stroke="#63b8ff" points="168.53,-79.86 159.64,-74.09 162.99,-84.14 168.53,-79.86"/>
</a>
</g>
</g>
<!-- Node6 -->
<g id="Node000006" class="node">
<title>Node6</title>
<g id="a_Node000006"><a xlink:title=" ">
<polygon fill="#e0e0e0" stroke="#999999" points="261.5,-74 208.5,-74 208.5,-55 261.5,-55 261.5,-74"/>
<text text-anchor="middle" x="235" y="-62" font-family="Helvetica,sans-Serif" font-size="10.00">stdint.h</text>
</a>
</g>
</g>
<!-- Node3&#45;&gt;Node6 -->
<g id="edge5_Node000003_Node000006" class="edge">
<title>Node3&#45;&gt;Node6</title>
<g id="a_edge5_Node000003_Node000006"><a xlink:title=" ">
<path fill="none" stroke="#63b8ff" d="M200.77,-109.75C206.56,-102.26 215.06,-91.28 222.14,-82.13"/>
<polygon fill="#63b8ff" stroke="#63b8ff" points="225.01,-84.14 228.36,-74.09 219.47,-79.86 225.01,-84.14"/>
</a>
</g>
</g>
<!-- Node7 -->
<g id="Node000007" class="node">
<title>Node7</title>
<g id="a_Node000007"><a xlink:href="config_8h.html" target="_top" xlink:title=" ">
<polygon fill="white" stroke="#666666" points="334.5,-74 279.5,-74 279.5,-55 334.5,-55 334.5,-74"/>
<text text-anchor="middle" x="307" y="-62" font-family="Helvetica,sans-Serif" font-size="10.00">config.h</text>
</a>
</g>
</g>
<!-- Node3&#45;&gt;Node7 -->
<g id="edge6_Node000003_Node000007" class="edge">
<title>Node3&#45;&gt;Node7</title>
<g id="a_edge6_Node000003_Node000007"><a xlink:title=" ">
<path fill="none" stroke="#63b8ff" d="M212.16,-109.98C230.25,-101.5 258.28,-88.35 279.19,-78.54"/>
<polygon fill="#63b8ff" stroke="#63b8ff" points="280.95,-81.59 288.51,-74.17 277.97,-75.25 280.95,-81.59"/>
</a>
</g>
</g>
<!-- Node8 -->
<g id="Node000008" class="node">
<title>Node8</title>
<g id="a_Node000008"><a xlink:title=" ">
<polygon fill="#e0e0e0" stroke="#999999" points="347,-19 267,-19 267,0 347,0 347,-19"/>
<text text-anchor="middle" x="307" y="-7" font-family="Helvetica,sans-Serif" font-size="10.00">application.h</text>
</a>
</g>
</g>
<!-- Node7&#45;&gt;Node8 -->
<g id="edge7_Node000007_Node000008" class="edge">
<title>Node7&#45;&gt;Node8</title>
<g id="a_edge7_Node000007_Node000008"><a xlink:title=" ">
<path fill="none" stroke="#63b8ff" d="M307,-54.75C307,-47.8 307,-37.85 307,-29.13"/>
<polygon fill="#63b8ff" stroke="#63b8ff" points="310.5,-29.09 307,-19.09 303.5,-29.09 310.5,-29.09"/>
</a>
</g>
</g>
<!-- Node9&#45;&gt;Node3 -->
<g id="edge9_Node000009_Node000003" class="edge">
<title>Node9&#45;&gt;Node3</title>
<g id="a_edge9_Node000009_Node000003"><a xlink:title=" ">
<path fill="none" stroke="#63b8ff" d="M194,-164.75C194,-157.8 194,-147.85 194,-139.13"/>
<polygon fill="#63b8ff" stroke="#63b8ff" points="197.5,-139.09 194,-129.09 190.5,-139.09 197.5,-139.09"/>
</a>
</g>
</g>
<!-- Node10&#45;&gt;Node3 -->
<g id="edge11_Node000010_Node000003" class="edge">
<title>Node10&#45;&gt;Node3</title>
<g id="a_edge11_Node000010_Node000003"><a xlink:title=" ">
<path fill="none" stroke="#63b8ff" d="M261.15,-164.98C248.86,-156.84 230.09,-144.41 215.52,-134.76"/>
<polygon fill="#63b8ff" stroke="#63b8ff" points="217.36,-131.78 207.09,-129.17 213.49,-137.61 217.36,-131.78"/>
</a>
</g>
</g>
</g>
</svg>
