<?xml version="1.0" encoding="UTF-8" standalone="no"?>
<!DOCTYPE svg PUBLIC "-//W3C//DTD SVG 1.1//EN"
 "http://www.w3.org/Graphics/SVG/1.1/DTD/svg11.dtd">
<!-- Generated by graphviz version 2.43.0 (0)
 -->
<!-- Title: ucdm/ucdm.c Pages: 1 -->
<svg width="173pt" height="140pt"
 viewBox="0.00 0.00 173.00 140.00" xmlns="http://www.w3.org/2000/svg" xmlns:xlink="http://www.w3.org/1999/xlink">
<g id="graph0" class="graph" transform="scale(1 1) rotate(0) translate(4 136)">
<title>ucdm/ucdm.c</title>
<!-- Node1 -->
<g id="node1" class="node">
<title>Node1</title>
<g id="a_node1"><a xlink:title="Implementation the Unified Configuration and Data Manager.">
<polygon fill="#bfbfbf" stroke="black" points="20.5,-112.5 20.5,-131.5 102.5,-131.5 102.5,-112.5 20.5,-112.5"/>
<text text-anchor="middle" x="61.5" y="-119.5" font-family="Helvetica,sans-Serif" font-size="10.00">ucdm/ucdm.c</text>
</a>
</g>
</g>
<!-- Node2 -->
<g id="node2" class="node">
<title>Node2</title>
<g id="a_node2"><a xlink:title=" ">
<polygon fill="none" stroke="#bfbfbf" points="0,-56.5 0,-75.5 53,-75.5 53,-56.5 0,-56.5"/>
<text text-anchor="middle" x="26.5" y="-63.5" font-family="Helvetica,sans-Serif" font-size="10.00">string.h</text>
</a>
</g>
</g>
<!-- Node1&#45;&gt;Node2 -->
<g id="edge1" class="edge">
<title>Node1&#45;&gt;Node2</title>
<path fill="none" stroke="midnightblue" d="M55.72,-112.08C50.83,-104.53 43.67,-93.49 37.67,-84.23"/>
<polygon fill="midnightblue" stroke="midnightblue" points="40.55,-82.24 32.17,-75.75 34.67,-86.05 40.55,-82.24"/>
</g>
<!-- Node3 -->
<g id="node3" class="node">
<title>Node3</title>
<g id="a_node3"><a xlink:href="ucdm_8h.html" target="_top" xlink:title="Interface and usage of the Unified Configuration and Data Manager.">
<polygon fill="none" stroke="black" points="71,-56.5 71,-75.5 124,-75.5 124,-56.5 71,-56.5"/>
<text text-anchor="middle" x="97.5" y="-63.5" font-family="Helvetica,sans-Serif" font-size="10.00">ucdm.h</text>
</a>
</g>
</g>
<!-- Node1&#45;&gt;Node3 -->
<g id="edge2" class="edge">
<title>Node1&#45;&gt;Node3</title>
<path fill="none" stroke="midnightblue" d="M67.44,-112.08C72.48,-104.53 79.84,-93.49 86.01,-84.23"/>
<polygon fill="midnightblue" stroke="midnightblue" points="89.03,-86.01 91.67,-75.75 83.21,-82.13 89.03,-86.01"/>
</g>
<!-- Node4 -->
<g id="node4" class="node">
<title>Node4</title>
<g id="a_node4"><a xlink:title=" ">
<polygon fill="none" stroke="#bfbfbf" points="19.5,-0.5 19.5,-19.5 93.5,-19.5 93.5,-0.5 19.5,-0.5"/>
<text text-anchor="middle" x="56.5" y="-7.5" font-family="Helvetica,sans-Serif" font-size="10.00">ds/avltree.h</text>
</a>
</g>
</g>
<!-- Node3&#45;&gt;Node4 -->
<g id="edge3" class="edge">
<title>Node3&#45;&gt;Node4</title>
<path fill="none" stroke="midnightblue" d="M90.73,-56.08C84.94,-48.46 76.44,-37.26 69.36,-27.94"/>
<polygon fill="midnightblue" stroke="midnightblue" points="71.98,-25.6 63.14,-19.75 66.4,-29.83 71.98,-25.6"/>
</g>
<!-- Node5 -->
<g id="node5" class="node">
<title>Node5</title>
<g id="a_node5"><a xlink:title=" ">
<polygon fill="none" stroke="#bfbfbf" points="112,-0.5 112,-19.5 165,-19.5 165,-0.5 112,-0.5"/>
<text text-anchor="middle" x="138.5" y="-7.5" font-family="Helvetica,sans-Serif" font-size="10.00">stdint.h</text>
</a>
</g>
</g>
<!-- Node3&#45;&gt;Node5 -->
<g id="edge4" class="edge">
<title>Node3&#45;&gt;Node5</title>
<path fill="none" stroke="midnightblue" d="M104.27,-56.08C110.06,-48.46 118.56,-37.26 125.64,-27.94"/>
<polygon fill="midnightblue" stroke="midnightblue" points="128.6,-29.83 131.86,-19.75 123.02,-25.6 128.6,-29.83"/>
</g>
</g>
</svg>
