<?xml version="1.0" encoding="UTF-8" standalone="no"?>
<!DOCTYPE svg PUBLIC "-//W3C//DTD SVG 1.1//EN"
 "http://www.w3.org/Graphics/SVG/1.1/DTD/svg11.dtd">
<!-- Generated by graphviz version 2.43.0 (0)
 -->
<!-- Title: ucdm/ucdm.h Pages: 1 -->
<svg width="212pt" height="140pt"
 viewBox="0.00 0.00 211.50 140.00" xmlns="http://www.w3.org/2000/svg" xmlns:xlink="http://www.w3.org/1999/xlink">
<g id="graph0" class="graph" transform="scale(1 1) rotate(0) translate(4 136)">
<title>ucdm/ucdm.h</title>
<!-- Node1 -->
<g id="node1" class="node">
<title>Node1</title>
<g id="a_node1"><a xlink:title="Interface and usage of the Unified Configuration and Data Manager.">
<polygon fill="#bfbfbf" stroke="black" points="81,-112.5 81,-131.5 164,-131.5 164,-112.5 81,-112.5"/>
<text text-anchor="middle" x="122.5" y="-119.5" font-family="Helvetica,sans-Serif" font-size="10.00">ucdm/ucdm.h</text>
</a>
</g>
</g>
<!-- Node2 -->
<g id="node2" class="node">
<title>Node2</title>
<g id="a_node2"><a xlink:href="descriptor_8h.html" target="_top" xlink:title="Descriptor type definitions.">
<polygon fill="none" stroke="black" points="30.5,-56.5 30.5,-75.5 134.5,-75.5 134.5,-56.5 30.5,-56.5"/>
<text text-anchor="middle" x="82.5" y="-63.5" font-family="Helvetica,sans-Serif" font-size="10.00">ucdm/descriptor.h</text>
</a>
</g>
</g>
<!-- Node1&#45;&gt;Node2 -->
<g id="edge1" class="edge">
<title>Node1&#45;&gt;Node2</title>
<path fill="none" stroke="midnightblue" d="M109.8,-103.86C102.87,-94.5 94.59,-83.33 88.98,-75.75"/>
<polygon fill="midnightblue" stroke="midnightblue" points="107.13,-106.13 115.89,-112.08 112.75,-101.96 107.13,-106.13"/>
</g>
<!-- Node4 -->
<g id="node4" class="node">
<title>Node4</title>
<g id="a_node4"><a xlink:href="ucdm_8c.html" target="_top" xlink:title="Implementation the Unified Configuration and Data Manager.">
<polygon fill="none" stroke="black" points="121.5,-0.5 121.5,-19.5 203.5,-19.5 203.5,-0.5 121.5,-0.5"/>
<text text-anchor="middle" x="162.5" y="-7.5" font-family="Helvetica,sans-Serif" font-size="10.00">ucdm/ucdm.c</text>
</a>
</g>
</g>
<!-- Node1&#45;&gt;Node4 -->
<g id="edge4" class="edge">
<title>Node1&#45;&gt;Node4</title>
<path fill="none" stroke="midnightblue" d="M131.67,-102.99C135.61,-94.86 140.08,-85.08 143.5,-76 150.97,-56.2 157.33,-32.11 160.44,-19.55"/>
<polygon fill="midnightblue" stroke="midnightblue" points="128.41,-101.69 127.09,-112.21 134.68,-104.81 128.41,-101.69"/>
</g>
<!-- Node3 -->
<g id="node3" class="node">
<title>Node3</title>
<g id="a_node3"><a xlink:href="descriptor_8c.html" target="_top" xlink:title="Descriptor type definitions.">
<polygon fill="none" stroke="black" points="0,-0.5 0,-19.5 103,-19.5 103,-0.5 0,-0.5"/>
<text text-anchor="middle" x="51.5" y="-7.5" font-family="Helvetica,sans-Serif" font-size="10.00">ucdm/descriptor.c</text>
</a>
</g>
</g>
<!-- Node2&#45;&gt;Node3 -->
<g id="edge2" class="edge">
<title>Node2&#45;&gt;Node3</title>
<path fill="none" stroke="midnightblue" d="M72.32,-47.27C67.03,-38.05 60.78,-27.17 56.52,-19.75"/>
<polygon fill="midnightblue" stroke="midnightblue" points="69.37,-49.15 77.38,-56.08 75.44,-45.67 69.37,-49.15"/>
</g>
<!-- Node2&#45;&gt;Node4 -->
<g id="edge3" class="edge">
<title>Node2&#45;&gt;Node4</title>
<path fill="none" stroke="midnightblue" d="M103.8,-50.62C118.42,-40.76 137.33,-27.99 149.68,-19.65"/>
<polygon fill="midnightblue" stroke="midnightblue" points="101.68,-47.83 95.35,-56.32 105.6,-53.63 101.68,-47.83"/>
</g>
</g>
</svg>
