<?xml version="1.0" encoding="UTF-8" standalone="no"?>
<!DOCTYPE svg PUBLIC "-//W3C//DTD SVG 1.1//EN"
 "http://www.w3.org/Graphics/SVG/1.1/DTD/svg11.dtd">
<!-- Generated by graphviz version 2.43.0 (0)
 -->
<!-- Title: ucdm_get_bit_addr Pages: 1 -->
<svg width="415pt" height="82pt"
 viewBox="0.00 0.00 415.00 82.00" xmlns="http://www.w3.org/2000/svg" xmlns:xlink="http://www.w3.org/1999/xlink">
<g id="graph0" class="graph" transform="scale(1 1) rotate(0) translate(4 78)">
<title>ucdm_get_bit_addr</title>
<!-- Node1 -->
<g id="Node000001" class="node">
<title>Node1</title>
<g id="a_Node000001"><a xlink:title="Get the address of a UCDM bit from the identifier.">
<polygon fill="#999999" stroke="#666666" points="407,-37 297,-37 297,-18 407,-18 407,-37"/>
<text text-anchor="middle" x="352" y="-25" font-family="Helvetica,sans-Serif" font-size="10.00">ucdm_get_bit_addr</text>
</a>
</g>
</g>
<!-- Node2 -->
<g id="Node000002" class="node">
<title>Node2</title>
<g id="a_Node000002"><a xlink:href="ucdm_8c.html#a9b805e25b36cfe19b539d16c19a6fd26" target="_top" xlink:title=" ">
<polygon fill="white" stroke="#666666" points="261,-56 127,-56 127,-37 261,-37 261,-56"/>
<text text-anchor="middle" x="194" y="-44" font-family="Helvetica,sans-Serif" font-size="10.00">_ucdm_generic_wop_bit</text>
</a>
</g>
</g>
<!-- Node1&#45;&gt;Node2 -->
<g id="edge1_Node000001_Node000002" class="edge">
<title>Node1&#45;&gt;Node2</title>
<g id="a_edge1_Node000001_Node000002"><a xlink:title=" ">
<path fill="none" stroke="#63b8ff" d="M286.71,-35.33C278.27,-36.36 269.6,-37.41 261.13,-38.45"/>
<polygon fill="#63b8ff" stroke="#63b8ff" points="287.37,-38.78 296.88,-34.09 286.53,-31.83 287.37,-38.78"/>
</a>
</g>
</g>
<!-- Node5 -->
<g id="Node000005" class="node">
<title>Node5</title>
<g id="a_Node000005"><a xlink:href="ucdm_8c.html#a17a8cd2f4803b9468624d3551491b6f4" target="_top" xlink:title="Get the value of a UCDM bit from protocol.">
<polygon fill="white" stroke="#666666" points="235.5,-19 152.5,-19 152.5,0 235.5,0 235.5,-19"/>
<text text-anchor="middle" x="194" y="-7" font-family="Helvetica,sans-Serif" font-size="10.00">ucdm_get_bit</text>
</a>
</g>
</g>
<!-- Node1&#45;&gt;Node5 -->
<g id="edge4_Node000001_Node000005" class="edge">
<title>Node1&#45;&gt;Node5</title>
<g id="a_edge4_Node000001_Node000005"><a xlink:title=" ">
<path fill="none" stroke="#63b8ff" d="M286.84,-20.1C269.56,-18.1 251.35,-16 235.74,-14.2"/>
<polygon fill="#63b8ff" stroke="#63b8ff" points="286.54,-23.59 296.88,-21.25 287.34,-16.63 286.54,-23.59"/>
</a>
</g>
</g>
<!-- Node3 -->
<g id="Node000003" class="node">
<title>Node3</title>
<g id="a_Node000003"><a xlink:href="ucdm_8c.html#acfc84fe0eb923e844eda3dc689bb6921" target="_top" xlink:title="Clear a UCDM bit from protocol.">
<polygon fill="white" stroke="#666666" points="91,-74 0,-74 0,-55 91,-55 91,-74"/>
<text text-anchor="middle" x="45.5" y="-62" font-family="Helvetica,sans-Serif" font-size="10.00">ucdm_clear_bit</text>
</a>
</g>
</g>
<!-- Node2&#45;&gt;Node3 -->
<g id="edge2_Node000002_Node000003" class="edge">
<title>Node2&#45;&gt;Node3</title>
<g id="a_edge2_Node000002_Node000003"><a xlink:title=" ">
<path fill="none" stroke="#63b8ff" d="M116.49,-55.9C107.86,-56.96 99.3,-58.01 91.28,-59"/>
<polygon fill="#63b8ff" stroke="#63b8ff" points="117.11,-59.35 126.61,-54.66 116.26,-52.4 117.11,-59.35"/>
</a>
</g>
</g>
<!-- Node4 -->
<g id="Node000004" class="node">
<title>Node4</title>
<g id="a_Node000004"><a xlink:href="ucdm_8c.html#a6c67499b748795e01bdffb17d7ceb995" target="_top" xlink:title="Set a UCDM bit from protocol.">
<polygon fill="white" stroke="#666666" points="86.5,-37 4.5,-37 4.5,-18 86.5,-18 86.5,-37"/>
<text text-anchor="middle" x="45.5" y="-25" font-family="Helvetica,sans-Serif" font-size="10.00">ucdm_set_bit</text>
</a>
</g>
</g>
<!-- Node2&#45;&gt;Node4 -->
<g id="edge3_Node000002_Node000004" class="edge">
<title>Node2&#45;&gt;Node4</title>
<g id="a_edge3_Node000002_Node000004"><a xlink:title=" ">
<path fill="none" stroke="#63b8ff" d="M116.68,-36.6C106.32,-35.26 96.04,-33.93 86.68,-32.71"/>
<polygon fill="#63b8ff" stroke="#63b8ff" points="116.24,-40.07 126.61,-37.89 117.14,-33.13 116.24,-40.07"/>
</a>
</g>
</g>
</g>
</svg>
