<?xml version="1.0" encoding="UTF-8" standalone="no"?>
<!DOCTYPE svg PUBLIC "-//W3C//DTD SVG 1.1//EN"
 "http://www.w3.org/Graphics/SVG/1.1/DTD/svg11.dtd">
<!-- Generated by graphviz version 2.43.0 (0)
 -->
<!-- Title: ucdm_clear_bit Pages: 1 -->
<svg width="442pt" height="82pt"
 viewBox="0.00 0.00 442.00 82.00" xmlns="http://www.w3.org/2000/svg" xmlns:xlink="http://www.w3.org/1999/xlink">
<g id="graph0" class="graph" transform="scale(1 1) rotate(0) translate(4 78)">
<title>ucdm_clear_bit</title>
<!-- Node1 -->
<g id="Node000001" class="node">
<title>Node1</title>
<g id="a_Node000001"><a xlink:title="Clear a UCDM bit from protocol.">
<polygon fill="#999999" stroke="#666666" points="91,-37 0,-37 0,-18 91,-18 91,-37"/>
<text text-anchor="middle" x="45.5" y="-25" font-family="Helvetica,sans-Serif" font-size="10.00">ucdm_clear_bit</text>
</a>
</g>
</g>
<!-- Node2 -->
<g id="Node000002" class="node">
<title>Node2</title>
<g id="a_Node000002"><a xlink:href="ucdm_8c.html#a9b805e25b36cfe19b539d16c19a6fd26" target="_top" xlink:title=" ">
<polygon fill="white" stroke="#666666" points="261,-56 127,-56 127,-37 261,-37 261,-56"/>
<text text-anchor="middle" x="194" y="-44" font-family="Helvetica,sans-Serif" font-size="10.00">_ucdm_generic_wop_bit</text>
</a>
</g>
</g>
<!-- Node1&#45;&gt;Node2 -->
<g id="edge1_Node000001_Node000002" class="edge">
<title>Node1&#45;&gt;Node2</title>
<g id="a_edge1_Node000001_Node000002"><a xlink:title=" ">
<path fill="none" stroke="#63b8ff" d="M91.25,-33.3C99.44,-34.37 108.2,-35.5 117.01,-36.64"/>
<polygon fill="#63b8ff" stroke="#63b8ff" points="116.58,-40.12 126.95,-37.93 117.48,-33.18 116.58,-40.12"/>
</a>
</g>
</g>
<!-- Node5 -->
<g id="Node000005" class="node">
<title>Node5</title>
<g id="a_Node000005"><a xlink:href="ucdm_8c.html#aaab0adb2fec07263bfba7e104326460b" target="_top" xlink:title=" ">
<polygon fill="white" stroke="#666666" points="256.5,-19 131.5,-19 131.5,0 256.5,0 256.5,-19"/>
<text text-anchor="middle" x="194" y="-7" font-family="Helvetica,sans-Serif" font-size="10.00">_ucdm_wfunc_bitclear</text>
</a>
</g>
</g>
<!-- Node1&#45;&gt;Node5 -->
<g id="edge4_Node000001_Node000005" class="edge">
<title>Node1&#45;&gt;Node5</title>
<g id="a_edge4_Node000001_Node000005"><a xlink:title=" ">
<path fill="none" stroke="#63b8ff" d="M91.25,-22C100.72,-20.84 110.94,-19.58 121.12,-18.33"/>
<polygon fill="#63b8ff" stroke="#63b8ff" points="121.76,-21.78 131.26,-17.09 120.91,-14.83 121.76,-21.78"/>
</a>
</g>
</g>
<!-- Node3 -->
<g id="Node000003" class="node">
<title>Node3</title>
<g id="a_Node000003"><a xlink:href="ucdm_8c.html#acc05d20c3a88a516afb2f75a15e34f2f" target="_top" xlink:title=" ">
<polygon fill="white" stroke="#666666" points="434,-74 297,-74 297,-55 434,-55 434,-74"/>
<text text-anchor="middle" x="365.5" y="-62" font-family="Helvetica,sans-Serif" font-size="10.00">_ucdm_exec_bit_handler</text>
</a>
</g>
</g>
<!-- Node2&#45;&gt;Node3 -->
<g id="edge2_Node000002_Node000003" class="edge">
<title>Node2&#45;&gt;Node3</title>
<g id="a_edge2_Node000002_Node000003"><a xlink:title=" ">
<path fill="none" stroke="#63b8ff" d="M261.02,-53.51C269.5,-54.41 278.25,-55.34 286.9,-56.26"/>
<polygon fill="#63b8ff" stroke="#63b8ff" points="286.67,-59.75 296.99,-57.33 287.41,-52.79 286.67,-59.75"/>
</a>
</g>
</g>
<!-- Node4 -->
<g id="Node000004" class="node">
<title>Node4</title>
<g id="a_Node000004"><a xlink:href="ucdm_8h.html#aeec28f3331971c9ebaf5fd7744aafe13" target="_top" xlink:title="Get the address of a UCDM bit from the identifier.">
<polygon fill="white" stroke="#666666" points="420.5,-37 310.5,-37 310.5,-18 420.5,-18 420.5,-37"/>
<text text-anchor="middle" x="365.5" y="-25" font-family="Helvetica,sans-Serif" font-size="10.00">ucdm_get_bit_addr</text>
</a>
</g>
</g>
<!-- Node2&#45;&gt;Node4 -->
<g id="edge3_Node000002_Node000004" class="edge">
<title>Node2&#45;&gt;Node4</title>
<g id="a_edge3_Node000002_Node000004"><a xlink:title=" ">
<path fill="none" stroke="#63b8ff" d="M261.02,-39.1C273.93,-37.65 287.45,-36.14 300.3,-34.7"/>
<polygon fill="#63b8ff" stroke="#63b8ff" points="300.88,-38.15 310.43,-33.56 300.1,-31.2 300.88,-38.15"/>
</a>
</g>
</g>
</g>
</svg>
