<?xml version="1.0" encoding="UTF-8" standalone="no"?>
<!DOCTYPE svg PUBLIC "-//W3C//DTD SVG 1.1//EN"
 "http://www.w3.org/Graphics/SVG/1.1/DTD/svg11.dtd">
<!-- Generated by graphviz version 2.43.0 (0)
 -->
<!-- Title: _ucdm_exec_bit_handler Pages: 1 -->
<svg width="442pt" height="64pt"
 viewBox="0.00 0.00 442.00 64.00" xmlns="http://www.w3.org/2000/svg" xmlns:xlink="http://www.w3.org/1999/xlink">
<g id="graph0" class="graph" transform="scale(1 1) rotate(0) translate(4 60)">
<title>_ucdm_exec_bit_handler</title>
<!-- Node1 -->
<g id="Node000001" class="node">
<title>Node1</title>
<g id="a_Node000001"><a xlink:title=" ">
<polygon fill="#999999" stroke="#666666" points="434,-37 297,-37 297,-18 434,-18 434,-37"/>
<text text-anchor="middle" x="365.5" y="-25" font-family="Helvetica,sans-Serif" font-size="10.00">_ucdm_exec_bit_handler</text>
</a>
</g>
</g>
<!-- Node2 -->
<g id="Node000002" class="node">
<title>Node2</title>
<g id="a_Node000002"><a xlink:href="ucdm_8c.html#a9b805e25b36cfe19b539d16c19a6fd26" target="_top" xlink:title=" ">
<polygon fill="white" stroke="#666666" points="261,-37 127,-37 127,-18 261,-18 261,-37"/>
<text text-anchor="middle" x="194" y="-25" font-family="Helvetica,sans-Serif" font-size="10.00">_ucdm_generic_wop_bit</text>
</a>
</g>
</g>
<!-- Node1&#45;&gt;Node2 -->
<g id="edge1_Node000001_Node000002" class="edge">
<title>Node1&#45;&gt;Node2</title>
<g id="a_edge1_Node000001_Node000002"><a xlink:title=" ">
<path fill="none" stroke="#63b8ff" d="M286.3,-27.5C277.86,-27.5 269.33,-27.5 261.05,-27.5"/>
<polygon fill="#63b8ff" stroke="#63b8ff" points="286.53,-31 296.53,-27.5 286.53,-24 286.53,-31"/>
</a>
</g>
</g>
<!-- Node3 -->
<g id="Node000003" class="node">
<title>Node3</title>
<g id="a_Node000003"><a xlink:href="ucdm_8c.html#acfc84fe0eb923e844eda3dc689bb6921" target="_top" xlink:title="Clear a UCDM bit from protocol.">
<polygon fill="white" stroke="#666666" points="91,-56 0,-56 0,-37 91,-37 91,-56"/>
<text text-anchor="middle" x="45.5" y="-44" font-family="Helvetica,sans-Serif" font-size="10.00">ucdm_clear_bit</text>
</a>
</g>
</g>
<!-- Node2&#45;&gt;Node3 -->
<g id="edge2_Node000002_Node000003" class="edge">
<title>Node2&#45;&gt;Node3</title>
<g id="a_edge2_Node000002_Node000003"><a xlink:title=" ">
<path fill="none" stroke="#63b8ff" d="M116.49,-37.42C107.86,-38.54 99.3,-39.65 91.28,-40.69"/>
<polygon fill="#63b8ff" stroke="#63b8ff" points="117.14,-40.87 126.61,-36.11 116.24,-33.93 117.14,-40.87"/>
</a>
</g>
</g>
<!-- Node4 -->
<g id="Node000004" class="node">
<title>Node4</title>
<g id="a_Node000004"><a xlink:href="ucdm_8c.html#a6c67499b748795e01bdffb17d7ceb995" target="_top" xlink:title="Set a UCDM bit from protocol.">
<polygon fill="white" stroke="#666666" points="86.5,-19 4.5,-19 4.5,0 86.5,0 86.5,-19"/>
<text text-anchor="middle" x="45.5" y="-7" font-family="Helvetica,sans-Serif" font-size="10.00">ucdm_set_bit</text>
</a>
</g>
</g>
<!-- Node2&#45;&gt;Node4 -->
<g id="edge3_Node000002_Node000004" class="edge">
<title>Node2&#45;&gt;Node4</title>
<g id="a_edge3_Node000002_Node000004"><a xlink:title=" ">
<path fill="none" stroke="#63b8ff" d="M116.68,-18.12C106.32,-16.85 96.04,-15.59 86.68,-14.44"/>
<polygon fill="#63b8ff" stroke="#63b8ff" points="116.26,-21.6 126.61,-19.34 117.11,-14.65 116.26,-21.6"/>
</a>
</g>
</g>
</g>
</svg>
