<?xml version="1.0" encoding="UTF-8" standalone="no"?>
<!DOCTYPE svg PUBLIC "-//W3C//DTD SVG 1.1//EN"
 "http://www.w3.org/Graphics/SVG/1.1/DTD/svg11.dtd">
<!-- Generated by graphviz version 2.43.0 (0)
 -->
<!-- Title: ucdm/ucdm.h Pages: 1 -->
<svg width="154pt" height="84pt"
 viewBox="0.00 0.00 153.50 84.00" xmlns="http://www.w3.org/2000/svg" xmlns:xlink="http://www.w3.org/1999/xlink">
<g id="graph0" class="graph" transform="scale(1 1) rotate(0) translate(4 80)">
<title>ucdm/ucdm.h</title>
<!-- Node1 -->
<g id="node1" class="node">
<title>Node1</title>
<g id="a_node1"><a xlink:title="Interface and usage of the Unified Configuration and Data Manager.">
<polygon fill="#bfbfbf" stroke="black" points="36.5,-56.5 36.5,-75.5 119.5,-75.5 119.5,-56.5 36.5,-56.5"/>
<text text-anchor="middle" x="78" y="-63.5" font-family="Helvetica,sans-Serif" font-size="10.00">ucdm/ucdm.h</text>
</a>
</g>
</g>
<!-- Node2 -->
<g id="node2" class="node">
<title>Node2</title>
<g id="a_node2"><a xlink:title=" ">
<polygon fill="none" stroke="#bfbfbf" points="0,-0.5 0,-19.5 74,-19.5 74,-0.5 0,-0.5"/>
<text text-anchor="middle" x="37" y="-7.5" font-family="Helvetica,sans-Serif" font-size="10.00">ds/avltree.h</text>
</a>
</g>
</g>
<!-- Node1&#45;&gt;Node2 -->
<g id="edge1" class="edge">
<title>Node1&#45;&gt;Node2</title>
<path fill="none" stroke="midnightblue" d="M71.23,-56.08C65.44,-48.46 56.94,-37.26 49.86,-27.94"/>
<polygon fill="midnightblue" stroke="midnightblue" points="52.48,-25.6 43.64,-19.75 46.9,-29.83 52.48,-25.6"/>
</g>
<!-- Node3 -->
<g id="node3" class="node">
<title>Node3</title>
<g id="a_node3"><a xlink:title=" ">
<polygon fill="none" stroke="#bfbfbf" points="92.5,-0.5 92.5,-19.5 145.5,-19.5 145.5,-0.5 92.5,-0.5"/>
<text text-anchor="middle" x="119" y="-7.5" font-family="Helvetica,sans-Serif" font-size="10.00">stdint.h</text>
</a>
</g>
</g>
<!-- Node1&#45;&gt;Node3 -->
<g id="edge2" class="edge">
<title>Node1&#45;&gt;Node3</title>
<path fill="none" stroke="midnightblue" d="M84.77,-56.08C90.56,-48.46 99.06,-37.26 106.14,-27.94"/>
<polygon fill="midnightblue" stroke="midnightblue" points="109.1,-29.83 112.36,-19.75 103.52,-25.6 109.1,-29.83"/>
</g>
</g>
</svg>
