<?xml version="1.0" encoding="UTF-8" standalone="no"?>
<!DOCTYPE svg PUBLIC "-//W3C//DTD SVG 1.1//EN"
 "http://www.w3.org/Graphics/SVG/1.1/DTD/svg11.dtd">
<!-- Generated by graphviz version 2.43.0 (0)
 -->
<!-- Title: ucdm_init Pages: 1 -->
<svg width="227pt" height="101pt"
 viewBox="0.00 0.00 227.00 101.00" xmlns="http://www.w3.org/2000/svg" xmlns:xlink="http://www.w3.org/1999/xlink">
<g id="graph0" class="graph" transform="scale(1 1) rotate(0) translate(4 97)">
<title>ucdm_init</title>
<!-- Node1 -->
<g id="Node000001" class="node">
<title>Node1</title>
<g id="a_Node000001"><a xlink:title="Intitialize the UCDM subsystem.">
<polygon fill="#999999" stroke="#666666" points="65,-56 0,-56 0,-37 65,-37 65,-56"/>
<text text-anchor="middle" x="32.5" y="-44" font-family="Helvetica,sans-Serif" font-size="10.00">ucdm_init</text>
</a>
</g>
</g>
<!-- Node2 -->
<g id="Node000002" class="node">
<title>Node2</title>
<g id="a_Node000002"><a xlink:href="ucdm_8c.html#a1d89b842c062c7988aa35fc8bf7d10a3" target="_top" xlink:title=" ">
<polygon fill="white" stroke="#666666" points="216.5,-93 103.5,-93 103.5,-74 216.5,-74 216.5,-93"/>
<text text-anchor="middle" x="160" y="-81" font-family="Helvetica,sans-Serif" font-size="10.00">_ucdm_acctype_init</text>
</a>
</g>
</g>
<!-- Node1&#45;&gt;Node2 -->
<g id="edge1_Node000001_Node000002" class="edge">
<title>Node1&#45;&gt;Node2</title>
<g id="a_edge1_Node000001_Node000002"><a xlink:title=" ">
<path fill="none" stroke="#63b8ff" d="M65.17,-55.84C80.83,-60.45 99.95,-66.09 116.83,-71.07"/>
<polygon fill="#63b8ff" stroke="#63b8ff" points="115.88,-74.44 126.47,-73.91 117.86,-67.72 115.88,-74.44"/>
</a>
</g>
</g>
<!-- Node3 -->
<g id="Node000003" class="node">
<title>Node3</title>
<g id="a_Node000003"><a xlink:href="ucdm_8c.html#aec2f05db6893b51943f589146364ffb6" target="_top" xlink:title=" ">
<polygon fill="white" stroke="#666666" points="218.5,-56 101.5,-56 101.5,-37 218.5,-37 218.5,-56"/>
<text text-anchor="middle" x="160" y="-44" font-family="Helvetica,sans-Serif" font-size="10.00">_ucdm_handlers_init</text>
</a>
</g>
</g>
<!-- Node1&#45;&gt;Node3 -->
<g id="edge2_Node000001_Node000003" class="edge">
<title>Node1&#45;&gt;Node3</title>
<g id="a_edge2_Node000001_Node000003"><a xlink:title=" ">
<path fill="none" stroke="#63b8ff" d="M65.17,-46.5C73.19,-46.5 82.11,-46.5 91.18,-46.5"/>
<polygon fill="#63b8ff" stroke="#63b8ff" points="91.44,-50 101.44,-46.5 91.44,-43 91.44,-50"/>
</a>
</g>
</g>
<!-- Node4 -->
<g id="Node000004" class="node">
<title>Node4</title>
<g id="a_Node000004"><a xlink:href="ucdm_8c.html#a2af61618c8b2a7c03fd100c1cfa0124f" target="_top" xlink:title=" ">
<polygon fill="white" stroke="#666666" points="219,-19 101,-19 101,0 219,0 219,-19"/>
<text text-anchor="middle" x="160" y="-7" font-family="Helvetica,sans-Serif" font-size="10.00">_ucdm_registers_init</text>
</a>
</g>
</g>
<!-- Node1&#45;&gt;Node4 -->
<g id="edge3_Node000001_Node000004" class="edge">
<title>Node1&#45;&gt;Node4</title>
<g id="a_edge3_Node000001_Node000004"><a xlink:title=" ">
<path fill="none" stroke="#63b8ff" d="M65.17,-37.16C80.83,-32.55 99.95,-26.91 116.83,-21.93"/>
<polygon fill="#63b8ff" stroke="#63b8ff" points="117.86,-25.28 126.47,-19.09 115.88,-18.56 117.86,-25.28"/>
</a>
</g>
</g>
</g>
</svg>
