<?xml version="1.0" encoding="UTF-8" standalone="no"?>
<!DOCTYPE svg PUBLIC "-//W3C//DTD SVG 1.1//EN"
 "http://www.w3.org/Graphics/SVG/1.1/DTD/svg11.dtd">
<!-- Generated by graphviz version 2.43.0 (0)
 -->
<!-- Title: ucdm_set_bit Pages: 1 -->
<svg width="433pt" height="82pt"
 viewBox="0.00 0.00 433.00 82.00" xmlns="http://www.w3.org/2000/svg" xmlns:xlink="http://www.w3.org/1999/xlink">
<g id="graph0" class="graph" transform="scale(1 1) rotate(0) translate(4 78)">
<title>ucdm_set_bit</title>
<!-- Node1 -->
<g id="Node000001" class="node">
<title>Node1</title>
<g id="a_Node000001"><a xlink:title="Set a UCDM bit from protocol.">
<polygon fill="#999999" stroke="#666666" points="82,-37 0,-37 0,-18 82,-18 82,-37"/>
<text text-anchor="middle" x="41" y="-25" font-family="Helvetica,sans-Serif" font-size="10.00">ucdm_set_bit</text>
</a>
</g>
</g>
<!-- Node2 -->
<g id="Node000002" class="node">
<title>Node2</title>
<g id="a_Node000002"><a xlink:href="ucdm_8c.html#a9b805e25b36cfe19b539d16c19a6fd26" target="_top" xlink:title=" ">
<polygon fill="white" stroke="#666666" points="252,-56 118,-56 118,-37 252,-37 252,-56"/>
<text text-anchor="middle" x="185" y="-44" font-family="Helvetica,sans-Serif" font-size="10.00">_ucdm_generic_wop_bit</text>
</a>
</g>
</g>
<!-- Node1&#45;&gt;Node2 -->
<g id="edge1_Node000001_Node000002" class="edge">
<title>Node1&#45;&gt;Node2</title>
<g id="a_edge1_Node000001_Node000002"><a xlink:title=" ">
<path fill="none" stroke="#63b8ff" d="M82.31,-32.89C90.35,-33.97 99.05,-35.13 107.85,-36.31"/>
<polygon fill="#63b8ff" stroke="#63b8ff" points="107.42,-39.78 117.8,-37.64 108.35,-32.85 107.42,-39.78"/>
</a>
</g>
</g>
<!-- Node5 -->
<g id="Node000005" class="node">
<title>Node5</title>
<g id="a_Node000005"><a xlink:href="ucdm_8c.html#a4e91303ab3e7acb5488a428134fba469" target="_top" xlink:title=" ">
<polygon fill="white" stroke="#666666" points="243,-19 127,-19 127,0 243,0 243,-19"/>
<text text-anchor="middle" x="185" y="-7" font-family="Helvetica,sans-Serif" font-size="10.00">_ucdm_wfunc_bitset</text>
</a>
</g>
</g>
<!-- Node1&#45;&gt;Node5 -->
<g id="edge4_Node000001_Node000005" class="edge">
<title>Node1&#45;&gt;Node5</title>
<g id="a_edge4_Node000001_Node000005"><a xlink:title=" ">
<path fill="none" stroke="#63b8ff" d="M82.31,-22.39C93.03,-21.03 104.9,-19.53 116.64,-18.04"/>
<polygon fill="#63b8ff" stroke="#63b8ff" points="117.41,-21.47 126.89,-16.74 116.53,-14.52 117.41,-21.47"/>
</a>
</g>
</g>
<!-- Node3 -->
<g id="Node000003" class="node">
<title>Node3</title>
<g id="a_Node000003"><a xlink:href="ucdm_8c.html#acc05d20c3a88a516afb2f75a15e34f2f" target="_top" xlink:title=" ">
<polygon fill="white" stroke="#666666" points="425,-74 288,-74 288,-55 425,-55 425,-74"/>
<text text-anchor="middle" x="356.5" y="-62" font-family="Helvetica,sans-Serif" font-size="10.00">_ucdm_exec_bit_handler</text>
</a>
</g>
</g>
<!-- Node2&#45;&gt;Node3 -->
<g id="edge2_Node000002_Node000003" class="edge">
<title>Node2&#45;&gt;Node3</title>
<g id="a_edge2_Node000002_Node000003"><a xlink:title=" ">
<path fill="none" stroke="#63b8ff" d="M252.02,-53.51C260.5,-54.41 269.25,-55.34 277.9,-56.26"/>
<polygon fill="#63b8ff" stroke="#63b8ff" points="277.67,-59.75 287.99,-57.33 278.41,-52.79 277.67,-59.75"/>
</a>
</g>
</g>
<!-- Node4 -->
<g id="Node000004" class="node">
<title>Node4</title>
<g id="a_Node000004"><a xlink:href="ucdm_8h.html#aeec28f3331971c9ebaf5fd7744aafe13" target="_top" xlink:title="Get the address of a UCDM bit from the identifier.">
<polygon fill="white" stroke="#666666" points="411.5,-37 301.5,-37 301.5,-18 411.5,-18 411.5,-37"/>
<text text-anchor="middle" x="356.5" y="-25" font-family="Helvetica,sans-Serif" font-size="10.00">ucdm_get_bit_addr</text>
</a>
</g>
</g>
<!-- Node2&#45;&gt;Node4 -->
<g id="edge3_Node000002_Node000004" class="edge">
<title>Node2&#45;&gt;Node4</title>
<g id="a_edge3_Node000002_Node000004"><a xlink:title=" ">
<path fill="none" stroke="#63b8ff" d="M252.02,-39.1C264.93,-37.65 278.45,-36.14 291.3,-34.7"/>
<polygon fill="#63b8ff" stroke="#63b8ff" points="291.88,-38.15 301.43,-33.56 291.1,-31.2 291.88,-38.15"/>
</a>
</g>
</g>
</g>
</svg>
